<svg width="508" height="257" viewBox="0 0 508 257" fill="none" xmlns="http://www.w3.org/2000/svg">
<path d="M4.69336 229.669C4.11003 229.669 3.62003 229.482 3.22336 229.109C2.85003 228.712 2.66336 228.234 2.66336 227.674C2.66336 227.114 2.85003 226.635 3.22336 226.239C3.62003 225.842 4.11003 225.644 4.69336 225.644C5.25336 225.644 5.72003 225.842 6.09336 226.239C6.49003 226.635 6.68836 227.114 6.68836 227.674C6.68836 228.234 6.49003 228.712 6.09336 229.109C5.72003 229.482 5.25336 229.669 4.69336 229.669ZM3.01336 250.354L3.36336 232.644H5.84836L6.19836 250.354H3.01336Z" fill="#69447C"/>
<path d="M27.9018 245.769C25.4984 245.769 23.4218 245.244 21.6718 244.194C19.9451 243.12 18.6034 241.639 17.6468 239.749C16.6901 237.835 16.2118 235.619 16.2118 233.099C16.2118 230.602 16.6901 228.409 17.6468 226.519C18.6034 224.605 19.9451 223.112 21.6718 222.039C23.4218 220.965 25.4984 220.429 27.9018 220.429C30.7018 220.429 32.9768 221.105 34.7268 222.459C36.5001 223.789 37.6318 225.655 38.1218 228.059H34.8668C34.4934 226.542 33.7234 225.329 32.5568 224.419C31.4134 223.485 29.8618 223.019 27.9018 223.019C26.1518 223.019 24.6234 223.427 23.3168 224.244C22.0101 225.037 20.9951 226.192 20.2718 227.709C19.5718 229.202 19.2218 230.999 19.2218 233.099C19.2218 235.199 19.5718 237.007 20.2718 238.524C20.9951 240.017 22.0101 241.172 23.3168 241.989C24.6234 242.782 26.1518 243.179 27.9018 243.179C29.8618 243.179 31.4134 242.735 32.5568 241.849C33.7234 240.939 34.4934 239.737 34.8668 238.244H38.1218C37.6318 240.6 36.5001 242.444 34.7268 243.774C32.9768 245.104 30.7018 245.769 27.9018 245.769Z" fill="#69447C"/>
<path d="M55.5835 245.769C53.9502 245.769 52.4802 245.395 51.1735 244.649C49.8669 243.902 48.8285 242.852 48.0585 241.499C47.3119 240.122 46.9385 238.512 46.9385 236.669C46.9385 234.825 47.3235 233.227 48.0935 231.874C48.8635 230.497 49.9019 229.435 51.2085 228.689C52.5385 227.942 54.0202 227.569 55.6535 227.569C57.2869 227.569 58.7569 227.942 60.0635 228.689C61.3702 229.435 62.3969 230.497 63.1435 231.874C63.9135 233.227 64.2985 234.825 64.2985 236.669C64.2985 238.512 63.9135 240.122 63.1435 241.499C62.3735 242.852 61.3235 243.902 59.9935 244.649C58.6869 245.395 57.2169 245.769 55.5835 245.769ZM55.5835 243.249C56.5869 243.249 57.5202 243.004 58.3835 242.514C59.2469 242.024 59.9469 241.289 60.4835 240.309C61.0202 239.329 61.2885 238.115 61.2885 236.669C61.2885 235.222 61.0202 234.009 60.4835 233.029C59.9702 232.049 59.2819 231.314 58.4185 230.824C57.5552 230.334 56.6335 230.089 55.6535 230.089C54.6502 230.089 53.7169 230.334 52.8535 230.824C51.9902 231.314 51.2902 232.049 50.7535 233.029C50.2169 234.009 49.9485 235.222 49.9485 236.669C49.9485 238.115 50.2169 239.329 50.7535 240.309C51.2902 241.289 51.9785 242.024 52.8185 242.514C53.6819 243.004 54.6035 243.249 55.5835 243.249Z" fill="#69447C"/>
<path d="M74.0428 245.349V227.989H76.7028L76.8778 231.104C77.4378 230.007 78.2428 229.144 79.2928 228.514C80.3428 227.884 81.5328 227.569 82.8628 227.569C84.9161 227.569 86.5495 228.199 87.7628 229.459C88.9995 230.695 89.6178 232.609 89.6178 235.199V245.349H86.6778V235.514C86.6778 231.897 85.1845 230.089 82.1978 230.089C80.7045 230.089 79.4561 230.637 78.4528 231.734C77.4728 232.807 76.9828 234.347 76.9828 236.354V245.349H74.0428Z" fill="#69447C"/>
<path d="M107.434 245.769C105.8 245.769 104.33 245.395 103.024 244.649C101.717 243.902 100.679 242.852 99.9085 241.499C99.1619 240.122 98.7885 238.512 98.7885 236.669C98.7885 234.825 99.1735 233.227 99.9435 231.874C100.714 230.497 101.752 229.435 103.059 228.689C104.389 227.942 105.87 227.569 107.504 227.569C109.137 227.569 110.607 227.942 111.914 228.689C113.22 229.435 114.247 230.497 114.994 231.874C115.764 233.227 116.149 234.825 116.149 236.669C116.149 238.512 115.764 240.122 114.994 241.499C114.224 242.852 113.174 243.902 111.844 244.649C110.537 245.395 109.067 245.769 107.434 245.769ZM107.434 243.249C108.437 243.249 109.37 243.004 110.234 242.514C111.097 242.024 111.797 241.289 112.334 240.309C112.87 239.329 113.139 238.115 113.139 236.669C113.139 235.222 112.87 234.009 112.334 233.029C111.82 232.049 111.132 231.314 110.269 230.824C109.405 230.334 108.484 230.089 107.504 230.089C106.5 230.089 105.567 230.334 104.704 230.824C103.84 231.314 103.14 232.049 102.604 233.029C102.067 234.009 101.799 235.222 101.799 236.669C101.799 238.115 102.067 239.329 102.604 240.309C103.14 241.289 103.829 242.024 104.669 242.514C105.532 243.004 106.454 243.249 107.434 243.249Z" fill="#69447C"/>
<path d="M134.779 244.403C133.124 244.49 131.614 244.195 130.247 243.518C128.902 242.818 127.809 241.812 126.97 240.5C126.152 239.164 125.696 237.588 125.601 235.77C125.506 233.953 125.796 232.349 126.471 230.958C127.168 229.543 128.15 228.429 129.416 227.615C130.704 226.777 132.175 226.314 133.829 226.228C135.88 226.121 137.632 226.567 139.086 227.565C140.564 228.563 141.536 229.949 142.002 231.724L138.996 231.881C138.707 230.821 138.093 230.024 137.154 229.489C136.214 228.931 135.138 228.683 133.926 228.746C132.947 228.797 132.04 229.09 131.203 229.625C130.366 230.159 129.706 230.93 129.221 231.936C128.736 232.943 128.531 234.169 128.607 235.613C128.682 237.058 129.014 238.256 129.601 239.206C130.188 240.157 130.926 240.866 131.815 241.334C132.702 241.778 133.636 241.974 134.614 241.923C135.826 241.86 136.871 241.513 137.749 240.883C138.626 240.23 139.153 239.35 139.329 238.242L142.335 238.085C142.076 239.851 141.265 241.319 139.901 242.488C138.537 243.658 136.829 244.296 134.779 244.403Z" fill="#69447C"/>
<path d="M160.516 238.32C158.902 238.696 157.386 238.665 155.967 238.229C154.542 237.77 153.313 236.966 152.279 235.817C151.268 234.663 150.553 233.188 150.135 231.393C149.723 229.62 149.715 227.993 150.113 226.511C150.505 225.006 151.242 223.745 152.323 222.726C153.421 221.68 154.799 220.964 156.458 220.578C158.094 220.197 159.591 220.244 160.947 220.719C162.321 221.166 163.466 221.918 164.383 222.974C165.299 224.03 165.919 225.252 166.242 226.638C166.3 226.888 166.347 227.14 166.382 227.396C166.44 227.646 166.506 227.93 166.58 228.248L153.115 231.382C153.485 232.662 154.032 233.672 154.755 234.414C155.497 235.128 156.315 235.608 157.211 235.855C158.13 236.096 159.044 236.111 159.953 235.9C161.134 235.625 162.059 235.122 162.728 234.391C163.396 233.661 163.804 232.787 163.951 231.771L166.78 231.112C166.69 232.786 166.12 234.297 165.068 235.643C164.033 236.962 162.516 237.855 160.516 238.32ZM156.953 223.014C155.59 223.332 154.472 224.035 153.599 225.124C152.744 226.186 152.423 227.53 152.634 229.158L163.269 226.683C162.847 225.176 162.046 224.105 160.868 223.468C159.69 222.832 158.385 222.681 156.953 223.014ZM155.376 219.788L154.876 217.64L161.027 211.645L161.606 214.133L155.376 219.788Z" fill="#69447C"/>
<path d="M182.851 211.477L168.378 201.892L169.846 199.674L172.54 201.248C171.935 200.176 171.66 199.028 171.714 197.805C171.768 196.581 172.163 195.415 172.897 194.307C174.031 192.595 175.458 191.581 177.179 191.265C178.892 190.916 180.829 191.457 182.988 192.887L191.451 198.492L189.828 200.943L181.628 195.513C178.612 193.516 176.28 193.762 174.631 196.252C173.807 197.497 173.575 198.841 173.935 200.283C174.289 201.693 175.302 202.952 176.975 204.06L184.475 209.026L182.851 211.477Z" fill="#69447C"/>
<path d="M197.493 182.494C196.593 184.34 195.321 185.536 193.677 186.084C192.013 186.622 190.017 186.323 187.689 185.187L178.567 180.736L179.857 178.094L188.695 182.407C191.946 183.993 194.221 183.455 195.52 180.792C196.185 179.429 196.251 178.071 195.716 176.72C195.17 175.337 193.996 174.206 192.192 173.326L184.109 169.381L185.398 166.739L200.999 174.352L199.833 176.743L196.941 175.565C197.692 176.529 198.114 177.631 198.21 178.872C198.315 180.092 198.077 181.299 197.493 182.494Z" fill="#69447C"/>
<path d="M210.134 157.083C209.394 158.565 208.405 159.714 207.164 160.53C205.902 161.335 204.499 161.769 202.955 161.834C201.421 161.877 199.829 161.488 198.179 160.666C196.551 159.854 195.292 158.822 194.403 157.571C193.494 156.309 192.992 154.938 192.896 153.456C192.79 151.943 193.117 150.424 193.877 148.9C194.626 147.397 195.616 146.274 196.846 145.531C198.066 144.758 199.376 144.354 200.774 144.321C202.172 144.288 203.508 144.589 204.782 145.224C205.012 145.339 205.236 145.464 205.455 145.599C205.685 145.714 205.946 145.844 206.239 145.99L200.071 158.362C201.292 158.893 202.419 159.116 203.452 159.031C204.475 158.915 205.367 158.591 206.128 158.058C206.899 157.504 207.493 156.809 207.91 155.974C208.451 154.888 208.653 153.855 208.516 152.874C208.38 151.893 207.966 151.022 207.277 150.262L208.573 147.662C209.805 148.798 210.605 150.2 210.973 151.869C211.329 153.507 211.05 155.245 210.134 157.083ZM196.069 150.071C195.445 151.324 195.274 152.634 195.557 154.001C195.83 155.336 196.661 156.441 198.05 157.316L202.922 147.543C201.492 146.908 200.156 146.842 198.915 147.344C197.674 147.847 196.725 148.756 196.069 150.071Z" fill="#69447C"/>
<path d="M220.798 135.678C219.856 137.529 218.606 138.83 217.045 139.581C215.485 140.332 213.852 140.404 212.145 139.797L213.509 137.114C214.405 137.36 215.329 137.294 216.281 136.914C217.223 136.504 217.996 135.705 218.599 134.52C219.16 133.418 219.344 132.49 219.151 131.738C218.937 130.974 218.508 130.429 217.863 130.101C216.927 129.625 216.129 129.65 215.468 130.178C214.817 130.685 214.055 131.488 213.181 132.588C212.592 133.335 211.929 134.046 211.194 134.719C210.459 135.392 209.668 135.866 208.82 136.142C207.952 136.407 207.051 136.302 206.115 135.826C204.763 135.138 203.915 134.078 203.57 132.646C203.215 131.183 203.476 129.588 204.355 127.862C205.191 126.219 206.289 125.089 207.65 124.473C209 123.825 210.477 123.804 212.08 124.41L210.763 126.999C209.92 126.701 209.131 126.732 208.398 127.092C207.655 127.421 207.04 128.063 206.554 129.02C206.077 129.956 205.905 130.784 206.035 131.505C206.177 132.205 206.569 132.719 207.214 133.047C207.838 133.365 208.491 133.291 209.172 132.826C209.864 132.341 210.621 131.6 211.442 130.604C212.137 129.753 212.857 128.981 213.603 128.287C214.338 127.561 215.145 127.082 216.023 126.848C216.891 126.583 217.887 126.736 219.01 127.307C220.414 127.995 221.298 129.113 221.663 130.66C222.017 132.175 221.729 133.848 220.798 135.678Z" fill="#69447C"/>
<path d="M232.514 115.941C231.688 117.296 230.709 118.161 229.578 118.538C228.447 118.914 227.025 118.579 225.312 117.535L217.154 112.56L215.587 115.13L213.465 113.836L215.032 111.267L211.676 108.77L213.006 106.588L216.562 108.756L219.223 104.393L221.344 105.687L218.684 110.05L226.842 115.024C227.778 115.595 228.531 115.795 229.101 115.623C229.65 115.439 230.217 114.868 230.8 113.912L231.747 112.358L233.899 113.67L232.514 115.941Z" fill="#69447C"/>
<path d="M239.889 106.631L225.9 96.3512L227.475 94.2076L230.299 95.979C229.696 94.8695 229.446 93.6726 229.55 92.3882C229.654 91.1038 230.183 89.8129 231.136 88.5155L233.618 90.3392L233.142 90.9879C232.534 91.8152 232.125 92.6873 231.914 93.6041C231.685 94.507 231.766 95.4209 232.158 96.3458C232.55 97.2707 233.357 98.1822 234.579 99.0802L241.63 104.261L239.889 106.631Z" fill="#69447C"/>
<path d="M256.936 87.5803C255.862 88.811 254.614 89.6731 253.193 90.1666C251.771 90.6602 250.297 90.7522 248.771 90.4425C247.243 90.0999 245.784 89.3226 244.396 88.1106C243.007 86.8986 242.056 85.5576 241.542 84.0877C241.011 82.6023 240.894 81.122 241.191 79.6465C241.502 78.1535 242.195 76.7917 243.269 75.561C244.343 74.3304 245.591 73.4683 247.013 72.9747C248.434 72.4811 249.909 72.4056 251.438 72.7482C252.964 73.0579 254.421 73.8187 255.81 75.0307C257.199 76.2427 258.159 77.5914 258.69 79.0767C259.203 80.5467 259.304 82.0282 258.992 83.5212C258.695 84.9966 258.01 86.3497 256.936 87.5803ZM255.037 85.9234C255.697 85.1674 256.126 84.3031 256.325 83.3305C256.523 82.3578 256.43 81.3471 256.044 80.2984C255.659 79.2497 254.921 78.2498 253.831 77.2986C252.741 76.3474 251.65 75.7518 250.559 75.5118C249.483 75.2542 248.477 75.2896 247.54 75.6179C246.603 75.9462 245.812 76.4795 245.168 77.2179C244.508 77.9739 244.079 78.8382 243.881 79.8109C243.682 80.7835 243.776 81.7942 244.161 82.8429C244.547 83.8916 245.285 84.8916 246.375 85.8427C247.465 86.7939 248.555 87.3895 249.647 87.6295C250.738 87.8695 251.744 87.8342 252.666 87.5234C253.602 87.1951 254.393 86.6618 255.037 85.9234Z" fill="#69447C"/>
<path d="M275.292 71.189C273.762 72.5927 272.135 73.373 270.41 73.5297C268.686 73.6865 267.131 73.1817 265.744 72.0154L267.963 69.9808C268.715 70.5252 269.604 70.7865 270.629 70.7647C271.655 70.7099 272.658 70.233 273.638 69.334C274.55 68.4981 275.047 67.6938 275.13 66.9212C275.197 66.1314 274.986 65.47 274.497 64.9369C273.787 64.1631 273.03 63.9075 272.226 64.1701C271.44 64.4169 270.444 64.9024 269.24 65.6266C268.426 66.1199 267.557 66.553 266.633 66.926C265.708 67.2989 264.801 67.4662 263.911 67.4278C263.005 67.3722 262.197 66.9575 261.488 66.1837C260.462 65.066 260.039 63.7761 260.218 62.314C260.398 60.819 261.202 59.4169 262.629 58.1078C263.987 56.8618 265.412 56.1884 266.903 56.0876C268.395 55.9538 269.785 56.4515 271.074 57.5806L268.933 59.5442C268.248 58.9697 267.499 58.7226 266.686 58.8032C265.875 58.8507 265.074 59.2372 264.283 59.9628C263.509 60.6725 263.057 61.3879 262.927 62.1089C262.814 62.8142 263.002 63.4333 263.491 63.9664C263.964 64.4822 264.601 64.6418 265.402 64.4452C266.221 64.2328 267.189 63.804 268.307 63.1586C269.255 62.6051 270.2 62.1339 271.142 61.7452C272.085 61.3235 273.009 61.1569 273.913 61.2455C274.819 61.3011 275.698 61.7932 276.55 62.7218C277.624 63.8581 278.06 65.2146 277.86 66.7914C277.662 68.3352 276.806 69.801 275.292 71.189Z" fill="#69447C"/>
<path d="M304.172 59.1752L289.677 38.7331L291.846 37.1945L293.735 39.3737C293.706 38.3645 293.914 37.287 294.36 36.1412C294.826 34.9819 295.715 33.9366 297.028 33.0053C298.437 32.0065 299.894 31.4595 301.399 31.3643C302.905 31.2692 304.342 31.5806 305.709 32.2987C307.095 33.0033 308.295 34.0693 309.307 35.4968C310.319 36.9244 310.928 38.4088 311.135 39.9502C311.347 41.4591 311.149 42.915 310.542 44.3179C309.941 45.6884 308.936 46.873 307.527 47.8717C306.366 48.6951 305.16 49.1927 303.909 49.3647C302.677 49.5232 301.519 49.3429 300.436 48.8239L306.57 57.4746L304.172 59.1752ZM305.792 45.9698C306.744 45.2949 307.426 44.4822 307.839 43.5315C308.238 42.5618 308.364 41.5288 308.216 40.4325C308.068 39.3361 307.616 38.255 306.86 37.1891C306.104 36.1233 305.233 35.3391 304.248 34.8366C303.262 34.3341 302.252 34.1204 301.219 34.1955C300.172 34.2516 299.172 34.6171 298.22 35.2919C297.269 35.9667 296.593 36.789 296.194 37.7587C295.781 38.7094 295.649 39.7329 295.797 40.8292C295.945 41.9255 296.397 43.0067 297.153 44.0725C297.909 45.1384 298.779 45.9226 299.765 46.4251C300.75 46.9276 301.767 47.1508 302.814 47.0947C303.848 47.0196 304.841 46.6446 305.792 45.9698Z" fill="#69447C"/>
<path d="M324.625 41.8727L318.565 25.6047L321.058 24.6762L322.448 27.7065C322.552 26.4477 323 25.3099 323.791 24.293C324.583 23.2761 325.733 22.4866 327.242 21.9246L328.317 24.8108L327.562 25.0918C326.6 25.4502 325.78 25.955 325.101 26.6062C324.414 27.2356 323.981 28.0444 323.801 29.0326C323.622 30.0208 323.797 31.2255 324.326 32.6468L327.38 40.8464L324.625 41.8727Z" fill="#69447C"/>
<path d="M349.274 36.8164C347.678 37.1623 346.162 37.1087 344.727 36.6556C343.292 36.2026 342.055 35.3963 341.016 34.2367C339.995 33.0493 339.289 31.5549 338.899 29.7533C338.508 27.9518 338.546 26.3082 339.012 24.8225C339.473 23.314 340.263 22.0565 341.382 21.0501C342.524 20.0388 343.893 19.3602 345.489 19.0143C347.085 18.6685 348.601 18.7221 350.036 19.1751C351.471 19.6282 352.699 20.4484 353.721 21.6357C354.76 22.7953 355.475 24.2759 355.865 26.0774C356.255 27.8789 356.22 29.534 355.759 31.0425C355.293 32.5281 354.489 33.7767 353.347 34.788C352.228 35.7944 350.871 36.4706 349.274 36.8164ZM348.741 34.3536C349.721 34.1411 350.582 33.7041 351.322 33.0424C352.062 32.3807 352.59 31.5141 352.907 30.4427C353.224 29.3713 353.229 28.1286 352.923 26.7148C352.617 25.3009 352.098 24.1719 351.366 23.3278C350.656 22.4787 349.828 21.9061 348.881 21.61C347.933 21.3139 346.98 21.2697 346.023 21.4772C345.042 21.6896 344.182 22.1267 343.442 22.7884C342.702 23.4501 342.173 24.3166 341.856 25.3881C341.539 26.4595 341.534 27.7021 341.84 29.116C342.147 30.5298 342.666 31.6588 343.398 32.503C344.13 33.3471 344.958 33.9197 345.883 34.2207C346.83 34.5168 347.783 34.5611 348.741 34.3536Z" fill="#69447C"/>
<path d="M375.495 37.0144C373.768 37.0345 372.247 36.6556 370.931 35.8776C369.639 35.0993 368.623 34.026 367.883 32.6579C367.167 31.2895 366.799 29.7304 366.779 27.9805C366.758 26.2306 367.102 24.6748 367.809 23.3131C368.516 21.9281 369.507 20.8432 370.781 20.0582C372.055 19.25 373.567 18.8356 375.317 18.8152C376.74 18.7986 378.004 19.0756 379.107 19.6461C380.211 20.2166 381.072 21.0232 381.691 22.0661L381.565 11.3218L384.505 11.2875L384.799 36.4858L382.139 36.5168L381.826 33.6503C381.276 34.4968 380.48 35.2644 379.437 35.9533C378.395 36.6422 377.081 36.9959 375.495 37.0144ZM375.78 34.4559C376.946 34.4423 377.97 34.162 378.85 33.615C379.754 33.0444 380.445 32.2663 380.923 31.2807C381.425 30.2947 381.668 29.1485 381.653 27.8419C381.638 26.5353 381.368 25.3951 380.843 24.4211C380.342 23.4469 379.633 22.6968 378.717 22.1708C377.823 21.6212 376.794 21.3532 375.627 21.3668C374.484 21.3801 373.46 21.6721 372.557 22.2427C371.677 22.7896 370.986 23.5561 370.484 24.542C370.005 25.5277 369.774 26.6738 369.789 27.9804C369.804 29.2869 370.062 30.4273 370.564 31.4015C371.088 32.3755 371.797 33.1373 372.691 33.6869C373.607 34.2129 374.636 34.4692 375.78 34.4559Z" fill="#69447C"/>
<path d="M401.024 43.4832C399.025 43.0123 397.577 42.0359 396.68 40.5539C395.788 39.0492 395.639 37.0364 396.233 34.5154L398.561 24.6359L401.422 25.3102L399.167 34.8831C398.337 38.4033 399.365 40.5033 402.249 41.1829C403.725 41.5307 405.064 41.2946 406.264 40.4747C407.492 39.6373 408.336 38.2421 408.796 36.2889L410.859 27.5336L413.721 28.2079L409.739 45.1052L407.15 44.4951L407.66 41.415C406.886 42.3594 405.905 43.0151 404.716 43.3821C403.549 43.7545 402.319 43.7882 401.024 43.4832Z" fill="#69447C"/>
<path d="M424.493 56.6704C423.035 55.8834 421.899 54.8455 421.083 53.5567C420.299 52.2584 419.889 50.8309 419.855 49.2742C419.852 47.7081 420.282 46.1243 421.147 44.5228C422.012 42.9212 423.094 41.7023 424.394 40.8661C425.725 40.0205 427.143 39.5795 428.648 39.5431C430.184 39.4973 431.681 39.8679 433.139 40.6549C434.946 41.6303 436.21 42.9227 436.932 44.5323C437.675 46.1529 437.784 47.8424 437.259 49.6008L434.61 48.1709C434.914 47.1156 434.805 46.1151 434.281 45.1695C433.769 44.2034 432.978 43.4322 431.911 42.8558C431.048 42.3903 430.121 42.168 429.129 42.1891C428.136 42.2102 427.171 42.5245 426.233 43.1319C425.295 43.7393 424.483 44.6796 423.796 45.9526C423.108 47.2256 422.768 48.4208 422.775 49.5381C422.782 50.6554 423.043 51.6449 423.559 52.5068C424.086 53.3481 424.78 54.0015 425.643 54.467C426.711 55.0434 427.783 55.291 428.861 55.21C429.95 55.1084 430.858 54.6305 431.584 53.7763L434.233 55.2062C433.093 56.5799 431.637 57.4112 429.864 57.7001C428.09 57.989 426.3 57.6457 424.493 56.6704Z" fill="#69447C"/>
<path d="M442.951 72.5C441.717 71.5023 440.989 70.4179 440.765 69.247C440.542 68.076 441.061 66.7104 442.323 65.1502L448.332 57.7208L445.991 55.828L447.554 53.8958L449.894 55.7886L452.813 52.7923L454.799 54.3989L452.18 57.6374L456.153 60.8507L454.591 62.7829L450.617 59.5696L444.609 66.9989C443.919 67.8516 443.622 68.5716 443.717 69.1588C443.827 69.7279 444.318 70.3645 445.189 71.0688L446.604 72.2133L445.019 74.1727L442.951 72.5Z" fill="#69447C"/>
<path d="M455.724 86.9772C454.581 85.8096 453.82 84.4978 453.44 83.0416C453.06 81.5854 453.085 80.1089 453.514 78.6121C453.976 77.1156 454.865 75.7229 456.183 74.4338C457.501 73.1448 458.912 72.3023 460.418 71.9063C461.941 71.494 463.426 71.4938 464.873 71.9057C466.337 72.3342 467.64 73.1323 468.782 74.2998C469.925 75.4674 470.686 76.7792 471.066 78.2354C471.446 79.6916 471.405 81.1679 470.943 82.6644C470.514 84.1612 469.641 85.5541 468.323 86.8432C467.005 88.1322 465.585 88.9829 464.063 89.3952C462.557 89.7912 461.072 89.7749 459.608 89.3463C458.161 88.9344 456.866 88.1447 455.724 86.9772ZM457.525 85.2149C458.227 85.9321 459.054 86.428 460.008 86.7024C460.962 86.9769 461.977 86.9633 463.053 86.6616C464.129 86.3599 465.184 85.7032 466.218 84.6915C467.252 83.6799 467.932 82.6396 468.257 81.5706C468.599 80.5184 468.643 79.5123 468.389 78.5526C468.136 77.5928 467.666 76.7626 466.981 76.0621C466.279 75.3449 465.452 74.849 464.498 74.5746C463.544 74.3001 462.529 74.3137 461.453 74.6154C460.377 74.9171 459.322 75.5738 458.288 76.5854C457.254 77.5971 456.574 78.6374 456.249 79.7064C455.924 80.7753 455.88 81.7813 456.117 82.7244C456.37 83.6842 456.84 84.5144 457.525 85.2149Z" fill="#69447C"/>
<path d="M468.14 108.219C467.061 106.445 466.613 104.697 466.794 102.975C466.976 101.253 467.774 99.826 469.188 98.693L470.752 101.265C470.071 101.897 469.642 102.718 469.464 103.728C469.318 104.745 469.591 105.822 470.282 106.958C470.924 108.015 471.617 108.659 472.358 108.89C473.12 109.11 473.81 109.032 474.428 108.656C475.325 108.11 475.723 107.417 475.622 106.578C475.533 105.758 475.25 104.687 474.774 103.365C474.449 102.471 474.193 101.534 474.007 100.555C473.821 99.5756 473.833 98.6531 474.044 97.7874C474.275 96.9097 474.839 96.198 475.736 95.6524C477.032 94.8642 478.38 94.7001 479.779 95.1599C481.21 95.6275 482.429 96.6886 483.436 98.3432C484.393 99.9182 484.777 101.447 484.586 102.928C484.427 104.418 483.668 105.685 482.31 106.73L480.8 104.248C481.497 103.687 481.885 103.001 481.964 102.188C482.075 101.383 481.852 100.522 481.294 99.6047C480.749 98.7076 480.135 98.125 479.453 97.857C478.783 97.6089 478.139 97.6728 477.521 98.0487C476.923 98.4124 476.643 99.0064 476.68 99.8305C476.729 100.675 476.961 101.708 477.377 102.93C477.735 103.968 478.013 104.987 478.211 105.986C478.441 106.993 478.425 107.931 478.162 108.801C477.931 109.679 477.278 110.445 476.201 111.1C474.878 111.932 473.462 112.097 471.954 111.594C470.479 111.099 469.207 109.974 468.14 108.219Z" fill="#69447C"/>
<path d="M478.897 121.815L495.767 116.412L496.678 119.464L479.609 124.196L478.897 121.815ZM472.604 125.083C472.437 124.524 472.476 124.001 472.72 123.514C472.994 123.043 473.398 122.727 473.935 122.567C474.472 122.406 474.972 122.452 475.437 122.703C475.93 122.969 476.261 123.382 476.427 123.941C476.588 124.477 476.531 124.981 476.258 125.453C476.014 125.939 475.623 126.263 475.087 126.423C474.55 126.584 474.035 126.53 473.542 126.264C473.077 126.013 472.765 125.619 472.604 125.083Z" fill="#69447C"/>
</svg>
